# xmcd
# 
# Track frame offsets:
#     150
#     9193
#     17994
#     28769
#     39177
#     47520
#     59126
#     68168
#     79290
#     88681
#     96981
#     105063
#     114031
#     121698
#     131863
#     148444
#     156814
#     164579
#     176518
#     184977
# 
# Disc length: 2623
# 
# Revision: 0
# Processed by: cddbd v1.5.2PL0 Copyright (c) Steve Scherf et al.
# Submitted via: fre:ac v1.0.31
# 
DISCID=0a0a3d14
DTITLE=Cash, Johnny - Blood, Sweat And Tears - Disc 2
DYEAR=2019
DGENRE=Country
TTITLE0=Lost On The Desert
TTITLE1=Acidentally On Purpose
TTITLE2=In The Jailhouse Now
TTITLE3=Mr. Lonesome
TTITLE4=You Won't Have Far To Go
TTITLE5=In Them Old Cottonfields Back Home
TTITLE6=Delia's Gone
TTITLE7=I Forgot More Than You'll Ever Know
TTITLE8=You Remembered Me
TTITLE9=I'm Free From The Chain Gang Now
TTITLE10=Let Me Down Easy
TTITLE11=Sing It Pretty, Sue
TTITLE12=Boss Jack
TTITLE13=Leading Coal
TTITLE14=Dorraine Of Ponchartrain
TTITLE15=Lumberjack
TTITLE16=When Papa Played The Dobro
TTITLE17=Slow Rider
TTITLE18=The Rebel-Johnny Yuma
TTITLE19=Doing My Time
EXTD=N23,28-AD2019 (T20)
EXTT0=
EXTT1=
EXTT2=
EXTT3=
EXTT4=
EXTT5=
EXTT6=
EXTT7=
EXTT8=
EXTT9=
EXTT10=
EXTT11=
EXTT12=
EXTT13=
EXTT14=
EXTT15=
EXTT16=
EXTT17=
EXTT18=
EXTT19=
PLAYORDER=
